<?xml version="1.0" encoding="utf-8"?>
<!-- Generator: Adobe Illustrator 19.1.0, SVG Export Plug-In . SVG Version: 6.00 Build 0)  -->
<svg version="1.1" id="Layer_1" xmlns="http://www.w3.org/2000/svg" xmlns:xlink="http://www.w3.org/1999/xlink" x="0px" y="0px"
	 viewBox="0 0 88.5 8.8" style="enable-background:new 0 0 88.5 8.8;" xml:space="preserve">
<style type="text/css">
	.st0{fill:none;}
</style>
<g>
	<rect x="2.2" class="st0" width="192" height="22.5"/>
	<path d="M4.8,1.6v1.7h2.6v1.4H4.8v3.8H3.2V0.1h5v1.4H4.8z"/>
	<path d="M12.9,4.8v3.7h-1.6V0.1h3.1c0.9,0,1.4,0.2,1.8,0.6c0.5,0.4,0.7,1,0.7,1.7c0,0.7-0.3,1.3-0.7,1.7c-0.2,0.2-0.5,0.4-0.8,0.5
		l3.2,3.9h-2l-3-3.7H12.9z M14.2,3.4c0.5,0,0.7-0.1,0.8-0.3c0.1-0.2,0.2-0.4,0.2-0.6c0-0.3-0.1-0.5-0.2-0.6
		c-0.1-0.2-0.3-0.3-0.8-0.3h-1.3v1.8H14.2z"/>
	<path d="M21.1,0.1h1.6v8.4h-1.6V0.1z"/>
	<path d="M28.1,1.6v1.7h2.6v1.4h-2.6v2.3h3.5v1.4h-5.2V0.1h5.1v1.4H28.1z"/>
	<path d="M34.6,7.6l4.1-6H35V0.1h5.9v1l-4.1,6h4.3v1.4h-6.5V7.6z"/>
	<path d="M45.9,1.6v1.7h2.6v1.4h-2.6v2.3h3.5v1.4h-5.2V0.1h5.1v1.4H45.9z"/>
	<path d="M54.1,6.5c0.6,0,1.1,0.5,1.1,1.1c0,0.6-0.5,1-1.1,1s-1-0.5-1-1C53.1,7,53.5,6.5,54.1,6.5z"/>
	<path d="M59.4,4.3c0,1.6,1.3,2.9,2.9,2.9c1.1,0,1.9-0.5,2.4-1.2l1.1,1c-0.7,0.9-2,1.6-3.5,1.6c-2.6,0-4.5-1.9-4.5-4.3
		S59.6,0,62.3,0c1.3,0,2.3,0.5,3.1,1.2l-1,1.1c-0.5-0.5-1.2-0.9-2-0.9C60.6,1.4,59.4,2.7,59.4,4.3z"/>
	<path d="M72.6,0c2.6,0,4.4,1.9,4.4,4.3s-1.8,4.3-4.4,4.3s-4.4-1.9-4.4-4.3S70,0,72.6,0z M72.6,7.2c1.6,0,2.8-1.3,2.8-2.9
		s-1.2-2.9-2.8-2.9c-1.6,0-2.8,1.3-2.8,2.9S71,7.2,72.6,7.2z"/>
	<path d="M84.3,5.1l3.1-5h1.1v8.4h-1.6V3.8l-2,3.3h-1.1l-2-3.3v4.7h-1.6V0.1h1.1L84.3,5.1z"/>
</g>
<g>
</g>
<g>
</g>
<g>
</g>
<g>
</g>
<g>
</g>
<g>
</g>
<g>
</g>
<g>
</g>
<g>
</g>
<g>
</g>
<g>
</g>
<g>
</g>
<g>
</g>
<g>
</g>
<g>
</g>
</svg>
